<?xml version="1.0" standalone="no"?>
<!DOCTYPE svg PUBLIC "-//W3C//DTD SVG 20010904//EN"
 "http://www.w3.org/TR/2001/REC-SVG-20010904/DTD/svg10.dtd">
<svg version="1.0" xmlns="http://www.w3.org/2000/svg"
 width="512.000000pt" height="512.000000pt" viewBox="0 0 512.000000 512.000000"
 preserveAspectRatio="xMidYMid meet">
<metadata>
Created by potrace 1.14, written by Peter Selinger 2001-2017
</metadata>
<g transform="translate(0.000000,512.000000) scale(0.100000,-0.100000)"
fill="#000000" stroke="none">
<path d="M715 4606 c-162 -38 -289 -170 -324 -334 -8 -38 -11 -534 -11 -1724
0 -1488 2 -1677 16 -1731 21 -81 43 -123 99 -185 55 -61 112 -97 196 -123 58
-18 117 -19 1449 -19 1498 0 1398 -3 1521 53 30 13 155 65 279 115 868 351
1046 424 1061 438 24 22 28 46 14 81 -11 27 -69 54 -736 344 l-724 314 -912 3
-913 3 0 714 0 715 613 0 c473 0 618 3 637 13 36 18 53 59 39 90 -7 16 -138
111 -361 264 l-351 238 424 3 423 2 86 -85 86 -85 34 35 34 35 -72 73 c-40 40
-72 79 -72 87 0 8 33 47 72 87 l73 73 -33 32 -32 33 -98 -98 -98 -97 -442 2
-443 3 206 140 c113 77 283 192 377 256 184 125 208 150 186 196 -7 15 -24 33
-38 40 -35 18 -2190 16 -2265 -1z m1994 -140 c-2 -2 -157 -108 -344 -235 -240
-164 -343 -239 -351 -258 -24 -57 -13 -67 351 -314 l343 -234 -546 -5 c-301
-3 -548 -6 -549 -8 -1 -1 -9 -15 -18 -32 -14 -26 -15 -126 -13 -839 3 -762 4
-811 21 -828 17 -17 73 -18 975 -23 l957 -5 608 -265 c334 -145 607 -267 607
-270 0 -3 -237 -102 -527 -219 -291 -118 -567 -231 -614 -252 l-87 -39 -1388
0 c-1375 0 -1389 1 -1434 21 -60 27 -117 83 -146 144 l-24 50 0 1691 c0 1918
-8 1747 85 1840 88 88 9 82 1119 83 539 1 977 -1 975 -3z"/>
<path d="M875 4396 c-158 -73 -193 -281 -68 -403 156 -151 402 -41 403 181 0
74 -25 130 -84 184 -71 66 -163 80 -251 38z"/>
</g>
</svg>
